inDegrees=no
num_controls=7
num_derivatives=13
num_iterations=78
num_multipliers=7
num_parameters=0
num_slacks=7
num_states=26
objective=0.333911
objective_accelerations=0.037391
objective_balance=0.001332
objective_effort=0.027369
objective_height=0.266360
objective_ligament=0.001458
solver_duration=995.105619
status=Solve_Succeeded
success=true
DataType=double
version=3
OpenSimVersion=4.5
endheader
time	/jointset/ground_pelvis/pelvis_tilt/value	/jointset/ground_pelvis/pelvis_tx/value	/jointset/ground_pelvis/pelvis_ty/value	/jointset/hip_r/hip_flexion_r/value	/jointset/hip_r/hip_adduction_r/value	/jointset/hip_r/hip_rotation_r/value	/jointset/back/lumbar_extension/value	/jointset/patellofemoral_r/patellar_flexion_r/value	/jointset/knee_r/knee_flexion_r/value	/jointset/knee_r/knee_adduction_r/value	/jointset/knee_r/knee_rotation_r/value	/jointset/ankle_r/ankle_angle_r/value	/jointset/subtalar_r/subtalar_angle_r/value	/jointset/ground_pelvis/pelvis_tilt/speed	/jointset/ground_pelvis/pelvis_tx/speed	/jointset/ground_pelvis/pelvis_ty/speed	/jointset/hip_r/hip_flexion_r/speed	/jointset/hip_r/hip_adduction_r/speed	/jointset/hip_r/hip_rotation_r/speed	/jointset/back/lumbar_extension/speed	/jointset/patellofemoral_r/patellar_flexion_r/speed	/jointset/knee_r/knee_flexion_r/speed	/jointset/knee_r/knee_adduction_r/speed	/jointset/knee_r/knee_rotation_r/speed	/jointset/ankle_r/ankle_angle_r/speed	/jointset/subtalar_r/subtalar_angle_r/speed	/forceset/tau_hip_flexion_r	/forceset/tau_hip_adduction_r	/forceset/tau_hip_rotation_r	/forceset/tau_knee_flexion_r	/forceset/tau_ankle_angle_r	/forceset/tau_subtalar_angle_r	/forceset/tau_lumbar_extension	lambda_cid13_p0	lambda_cid14_p0	lambda_cid14_p1	lambda_cid14_p2	lambda_cid14_p3	lambda_cid14_p4	lambda_cid14_p5	/jointset/ground_pelvis/pelvis_tilt/accel	/jointset/ground_pelvis/pelvis_tx/accel	/jointset/ground_pelvis/pelvis_ty/accel	/jointset/hip_r/hip_flexion_r/accel	/jointset/hip_r/hip_adduction_r/accel	/jointset/hip_r/hip_rotation_r/accel	/jointset/back/lumbar_extension/accel	/jointset/patellofemoral_r/patellar_flexion_r/accel	/jointset/knee_r/knee_flexion_r/accel	/jointset/knee_r/knee_adduction_r/accel	/jointset/knee_r/knee_rotation_r/accel	/jointset/ankle_r/ankle_angle_r/accel	/jointset/subtalar_r/subtalar_angle_r/accel	gamma_cid13_p0	gamma_cid14_p0	gamma_cid14_p1	gamma_cid14_p2	gamma_cid14_p3	gamma_cid14_p4	gamma_cid14_p5
0.5	-0.1721768342289819	0.02817365103262681	0.803417462022495	0.9264365091731089	-0.2235653284652936	-0.1234505135152931	-0.6483731214448076	0.9578873534577631	0.9578873534577744	-0.04880238202462952	0.1745005694270608	0.2956974826302457	0.1380227409524857	-0.4443752923241352	-0.2061026142852039	-0.5135769786075449	1.965810367643769	-0.01175211607387095	0.1777693804382987	-0.7363759220578592	1.940613826443972	1.940613826443967	-0.4620620384515949	-0.0001249847281135429	0.5306696210456353	0.191718557990539	-0.2145016956943729	0.02494507750010028	0.01499202109547352	-0.2678784879227676	-0.01623020194083989	-0.004540007248809914	0.2491178811383266	-8.282945466528901	-47.84118547638961	-9.540708696305268	1.020439822731328	-2.98517442771841	-639.2722501440552	51.02865906154319	0.3518107605657073	0.5940729789959998	-0.4412720405565682	-1.27860285605199	-0.2485121154298771	-0.6217481014150639	1.82837420724954	-1.348143311603772	-1.348143311603776	0.4615449884808775	-0.01046689953000919	-0.5901679594971015	-0.4133568070983187	-1.462370168772666e-07	-1.51338906769662e-07	5.651992666278768e-07	-1.558457206800275e-06	3.353370128220199e-08	-2.744003619400628e-07	4.104424711043479e-07
0.51	-0.1766018553874439	0.02614250873154144	0.798260856510104	0.9460273654269759	-0.2236960134731225	-0.1217028774491105	-0.655645217600657	0.9772232905014456	0.9772232905014575	-0.05339716303711436	0.1744996284406209	0.3009734968554083	0.1399174592179533	-0.4405447013299048	-0.2001101027939788	-0.5176260252669572	1.952082729516817	-0.01437286801804949	0.171755484618975	-0.7179815602633043	1.926304676154268	1.926304676154268	-0.4568680384926624	-5.133462968854259e-05	0.5244504327948547	0.1871911693190462	-0.2214752218324601	0.02630959275145758	0.01500696039399105	-0.2722944075857895	-0.01760538118926754	-0.004175289108929917	0.2554037505045571	-7.340520476960137	-48.61350835499903	-9.706828572547765	1.26313752758225	-2.881202815534954	-644.4246873482532	51.02242139584588	0.4113036848096991	0.6042088670061666	-0.3690609006864996	-1.461588088020655	-0.2672471173548622	-0.5918162400011293	1.854229492861547	-1.512607337691301	-1.512607337690553	0.5523209903213233	0.01777026252889595	-0.650238035846057	-0.4776180861262353	-1.571353849239611e-07	-1.787529861590645e-07	4.100969789868371e-07	-1.821171611971041e-06	6.341780422704227e-08	-2.806896584089438e-07	2.646702955004486e-07
0.52	-0.1809860465527719	0.02417176527193241	0.7930672925467084	0.9654725965401724	-0.2238525840770819	-0.1200155015246831	-0.6627315176730999	0.9964080747522238	0.996408074752236	-0.05793920535186556	0.1744997218147653	0.3061848304424675	0.1417658659589157	-0.4362092936973536	-0.1940228459899378	-0.520968668808487	1.93668533950971	-0.0169292352999525	0.1657173520872472	-0.6992167053766266	1.910383267863063	1.910383267863068	-0.4515142989048649	8.188738874210941e-05	0.5177334934249742	0.1824562530894947	-0.2284487479705473	0.02767410800281497	0.01502189969250834	-0.2767103272488053	-0.01898056043769518	-0.003810570969049778	0.2616896198706822	-6.457809053847291	-49.38265106920571	-9.867743736071853	1.499695874631245	-2.811611597804259	-649.5370315114808	51.0751012055146	0.452774088229865	0.6130220415591469	-0.2999914169800692	-1.612553232083156	-0.2356351829747744	-0.6265954438958838	1.902472825674073	-1.670594911903748	-1.670594911903722	0.4934929142538737	0.001447484471121096	-0.689718183317007	-0.4548623187100454	-1.768987292690459e-07	-2.28973220983515e-07	1.173281339022246e-07	-2.319773025163987e-06	1.191954558647761e-07	-2.950883754202089e-07	1.68776945032636e-08
0.53	-0.1853245139095967	0.02226233276753893	0.7878438322700796	0.9847557748640187	-0.2240347277325366	-0.1183862538536898	-0.6696281614249328	1.015426122593305	1.015426122593336	-0.06242445884276387	0.1745006993072716	0.3113265714983429	0.143565300577909	-0.4314104403784464	-0.1878513036332538	-0.5236045126981562	1.919691207265511	-0.01949331514110339	0.1602094887027838	-0.6800395131521181	1.892988370743073	1.892988370743077	-0.4454337122897429	0.0001013278236307703	0.5105442760648714	0.1773880629752002	-0.2354100294704267	0.0286723717427562	0.01512047960939905	-0.2812474907907266	-0.02042125491333286	-0.003406002001131052	0.267951400686386	-5.635416130819181	-50.17903888662754	-10.00569259539403	1.720680336643797	-2.698795000471151	-654.7690456636236	51.23573521152828	0.5044724268033636	0.6211027196102279	-0.227610332363979	-1.781747546746752	-0.2662383323848357	-0.5016197392269053	1.936222196515177	-1.809589097671402	-1.809589097671523	0.6807521770348863	-0.0001596308023033011	-0.7440998768868246	-0.539500330372064	-1.553506489804021e-07	-1.790300804087334e-07	3.126463991765059e-07	-1.87798968493064e-06	6.797895408355215e-08	-2.537136009639686e-07	1.682107435381438e-07
